<?xml version="1.0" encoding="UTF-8"?>
<!-- Created with Inkscape (http://www.inkscape.org/) -->
<svg width="150" height="150" version="1.1" viewBox="0 0 39.687 39.688" xmlns="http://www.w3.org/2000/svg">
 <text x="7.3312106" y="12.862457" font-family="Montserrat" font-size="9.8778px" font-weight="600" stroke-width=".26458" style="line-height:1.35" xml:space="preserve"><tspan x="7.3312106" y="12.862457" stroke-width=".26458"/></text>
 <text transform="scale(.26458)" font-family="Montserrat" font-size="37.333px" font-weight="600" style="line-height:1.35;shape-inside:url(#rect12888);white-space:pre" xml:space="preserve"/>
 <g transform="matrix(.26458 0 0 .26458 -.19954 .1178)" fill="#ff6464" stroke="#000" stroke-dasharray="12, 0.5" stroke-width=".5" style="shape-inside:url(#rect18328);white-space:pre" aria-label="An error occured">
  <path d="m29.186 62.291-11.797-26.133h-4.7787l-11.76 26.133h5.0027l2.576-6.048h13.067l2.6133 6.048zm-14.224-21.28 4.928 11.424h-9.8187z"/>
  <path d="m42.373 42.131c-2.912 0-5.3387 0.97067-6.8693 2.8v-2.576h-4.4427v19.936h4.6667v-10.08c0-3.9947 2.24-6.0107 5.5627-6.0107 2.9867 0 4.7413 1.7173 4.7413 5.264v10.827h4.6667v-11.424c0-6.0107-3.5467-8.736-8.3253-8.736z"/>
  <path d="m83.68 52.435c0-6.2347-4.256-10.304-10.08-10.304-5.936 0-10.304 4.256-10.304 10.192s4.3307 10.229 11.013 10.229c3.4347 0 6.2347-1.12 8.0267-3.248l-2.5013-2.8747c-1.4187 1.456-3.1733 2.1653-5.4133 2.1653-3.472 0-5.8987-1.8667-6.4587-4.7787h15.643c0.03733-0.448 0.07467-1.008 0.07467-1.3813zm-10.08-6.5707c3.0613 0 5.264 1.9787 5.6373 4.8533h-11.312c0.448-2.912 2.6507-4.8533 5.6747-4.8533z"/>
  <path d="m91.602 42.355h-4.4427v19.936h4.6667v-9.6693c0-4.0693 2.24-6.16 5.7867-6.16 0.336 0 0.672 0.03733 1.0827 0.112v-4.4427c-3.3227 0-5.7493 1.0453-7.0933 3.136z"/>
  <path d="m106.1 42.355h-4.4427v19.936h4.6667v-9.6693c0-4.0693 2.24-6.16 5.7867-6.16 0.336 0 0.672 0.03733 1.0827 0.112v-4.4427c-3.3227 0-5.7493 1.0453-7.0933 3.136z"/>
  <path d="m124.92 62.552c6.1973 0 10.64-4.256 10.64-10.229 0-5.9733-4.4427-10.192-10.64-10.192-6.1227 0-10.603 4.2187-10.603 10.192 0 5.9733 4.48 10.229 10.603 10.229zm0-3.9947c-3.36 0-5.8987-2.4267-5.8987-6.2347 0-3.808 2.5387-6.2347 5.8987-6.2347 3.3973 0 5.936 2.4267 5.936 6.2347 0 3.808-2.5387 6.2347-5.936 6.2347z"/>
  <path d="m143.48 42.355h-4.4427v19.936h4.6667v-9.6693c0-4.0693 2.24-6.16 5.7867-6.16 0.336 0 0.672 0.03733 1.0827 0.112v-4.4427c-3.3227 0-5.7493 1.0453-7.0933 3.136z"/>
  <path d="m13.058 112.95c6.1973 0 10.64-4.256 10.64-10.229 0-5.9733-4.4427-10.192-10.64-10.192-6.1227 0-10.603 4.2187-10.603 10.192 0 5.9733 4.48 10.229 10.603 10.229zm0-3.9947c-3.36 0-5.8987-2.4267-5.8987-6.2347 0-3.808 2.5387-6.2347 5.8987-6.2347 3.3973 0 5.936 2.4267 5.936 6.2347 0 3.808-2.5387 6.2347-5.936 6.2347z"/>
  <path d="m36.325 112.95c3.8827 0 6.9813-1.68 8.512-4.6667l-3.584-2.0907c-1.1947 1.904-2.9867 2.7627-4.9653 2.7627-3.4347 0-6.048-2.352-6.048-6.2347 0-3.8453 2.6133-6.2347 6.048-6.2347 1.9787 0 3.7707 0.85867 4.9653 2.7627l3.584-2.0907c-1.5307-3.024-4.6293-4.6293-8.512-4.6293-6.3093 0-10.789 4.2187-10.789 10.192 0 5.9733 4.48 10.229 10.789 10.229z"/>
  <path d="m56.717 112.95c3.8827 0 6.9813-1.68 8.512-4.6667l-3.584-2.0907c-1.1947 1.904-2.9867 2.7627-4.9653 2.7627-3.4347 0-6.048-2.352-6.048-6.2347 0-3.8453 2.6133-6.2347 6.048-6.2347 1.9787 0 3.7707 0.85867 4.9653 2.7627l3.584-2.0907c-1.5307-3.024-4.6293-4.6293-8.512-4.6293-6.3093 0-10.789 4.2187-10.789 10.192 0 5.9733 4.48 10.229 10.789 10.229z"/>
  <path d="m82.896 102.83c0 3.9947-2.2027 6.0107-5.4507 6.0107-2.9493 0-4.6667-1.7173-4.6667-5.3387v-10.752h-4.6667v11.387c0 6.0107 3.472 8.8107 8.5867 8.8107 2.576 0 4.928-0.97067 6.4213-2.8v2.5387h4.4427v-19.936h-4.6667z"/>
  <path d="m97.128 92.755h-4.4427v19.936h4.6667v-9.6693c0-4.0693 2.24-6.16 5.7867-6.16 0.336 0 0.672 0.03733 1.0827 0.112v-4.4427c-3.3227 0-5.7493 1.0453-7.0933 3.136z"/>
  <path d="m125.73 102.83c0-6.2347-4.256-10.304-10.08-10.304-5.936 0-10.304 4.256-10.304 10.192 0 5.936 4.3307 10.229 11.013 10.229 3.4347 0 6.2347-1.12 8.0267-3.248l-2.5013-2.8747c-1.4187 1.456-3.1733 2.1653-5.4133 2.1653-3.472 0-5.8987-1.8667-6.4587-4.7787h15.643c0.0373-0.448 0.0747-1.008 0.0747-1.3813zm-10.08-6.5707c3.0613 0 5.264 1.9787 5.6373 4.8533h-11.312c0.448-2.912 2.6507-4.8533 5.6747-4.8533z"/>
  <path d="m144.07 95.219c-1.568-1.8293-3.8453-2.688-6.4213-2.688-5.7867 0-10.08 3.9947-10.08 10.192 0 6.1973 4.2933 10.229 10.08 10.229 2.7253 0 5.04-0.93334 6.608-2.8373v2.576h4.48v-27.701h-4.6667zm-5.8613 13.739c-3.36 0-5.936-2.4267-5.936-6.2347 0-3.808 2.576-6.2347 5.936-6.2347 3.36 0 5.936 2.4267 5.936 6.2347 0 3.808-2.576 6.2347-5.936 6.2347z"/>
 </g>
</svg>
