<?xml version="1.0" encoding="UTF-8"?>
<!-- Created with Inkscape (http://www.inkscape.org/) -->
<svg width="92.721mm" height="25.53mm" version="1.1" viewBox="0 0 92.721 25.53" xmlns="http://www.w3.org/2000/svg" xmlns:xlink="http://www.w3.org/1999/xlink">
 <defs>
  <linearGradient id="linearGradient17983" x1="306.09" x2="656.53" y1="250.82" y2="250.82" gradientUnits="userSpaceOnUse">
   <stop stop-color="#f00" stop-opacity=".5" offset="0"/>
   <stop stop-color="#5000ff" stop-opacity=".50196" offset="1"/>
  </linearGradient>
 </defs>
 <g transform="translate(-80.986 -53.597)">
  <path transform="scale(.26458)" d="m429.28 202.58c-6.7792 0.43393-3.8076 17.799-10.262 19.947s-2.2219-18.321-8.0469-14.377c-5.825 3.9439 3.9942 14.534-1.2617 18.717s-12.547-13.075-16.436-6.959 9.0489 7.8274 5.502 14.102c-1.7529 3.1007-4.5424 3.7885-7.0625 4.5156-2.4111-0.23493-6.5533 1.9453-7.7949-2.4902-1.828-6.5301 14.782 0.43611 11.717-5.8574s-15.334 4.4991-19.176-1.0254c-3.842-5.5245 8.1986-9.3256 3.4219-14.393-4.7767-5.067-6.5603 7.0278-12.83 3.6289-6.2698-3.3988 7.7669-13.46 0.77149-14.939s-11.377 13.882-17.914 12.371c-6.5368-1.511 5.6129-9.7292-1.0645-9.6113-6.6774 0.11792-2.7477 10.437-9.0957 13.086s-4.312-18.877-9.709-14.709c-5.397 4.1682 6.2611 8.7142 1.9961 13.783s-12.901-5.7262-16.045 0.10156 4.1354 8.1392 1.2637 14.436-8.8709-0.22932-10.98 5.9648c-2.1096 6.1942 14.252 5.2836 15.039 11.912 0.78753 6.6285-11.232 2.5338-10.355 9.0742 0.87673 6.5404 5.0225-4.585 7.5137 1.5352 2.4911 6.1202-3.8561 3.1232-0.11328 8.8926 3.7428 5.7693 7.5336-2.1891 12.541 2.1699s-10.272 5.944-4.0547 8.6426c6.2178 2.6985 5.1465-7.4635 11.566-4.582 6.4199 2.8815 5.91 12.139 12.729 12.506 6.8185 0.36642-3.5211-7.0574 3.5274-8.2129 7.0485-1.1554 3.2746 13.011 9.5449 10.428s2.5547-9.9225 8.3184-13.031 2.8167 4.0368 7.457-0.74219c4.6404-4.7789-6.3505-4.252-3.3613-10.094 2.7425-5.3597 14.304 1.4192 17.984-2.2031 3.767-0.47049 9.1335-3.3051 10.371 1.0508 1.8902 6.6531-16.884 8.7106-13.76 14.918s13.937-8.2136 19.242-3.5898c5.3047 4.6237-7.4741 11.316-1.4219 15.373s6.4941-13.412 12.703-10.98-1.3286 16.295 5.3301 17.09c6.6586 0.79489 4.3711-11.768 11.127-11.994 6.7559-0.22641-2.2691 8.4196 4.2383 5.9688 6.5074-2.4509 1.0277-9.8293 7.8984-12.357 6.8707-2.5281 6.2185 9.6376 10.896 4.2383s-4.1238-5.7368 0.2207-11.357c4.1446-5.3619 7.8411-2.1869 11.5-6.9727 3.4344 4.1272-10.601 2.6524-7.0293 7.1856 3.6463 4.6277 4.6948-5.255 9.6055-1.1914 4.9107 4.0636-2.7565 8.1332 3.4512 9.5078 6.2077 1.3746 8.4271-1.8204 14.488-1.0312 6.0612 0.78919-4.6566 10.748 1.166 10.045 5.8226-0.70336 6.04-11.484 11.627-13.557 5.587-2.0725-1.2326 6.2496 4.1035 3.4394 5.3362-2.8101-1.6722-5.3458 3.0996-9.4629 0.65889-0.56849 1.3115-0.87907 1.959-1.0332 0.59956 0.1554 1.2845 0.58842 2.1192 1.5449 4.0818 4.6776-5.1164 7.4685 0.73046 10.281 5.8469 2.8128 7.4957-10.946 12.902-7.9316 5.4066 3.014-1.4216 15.048 4.4629 16.812 5.8845 1.7646-1.5065-12.947 4.5605-12.949 6.067-2e-3 2.3857 9.9675 8.4356 9.0508s2.6958-12.452 8.0957-15.674c5.3999-3.2217 8.4025 6.5754 13.83 3.2949 5.4276-3.2805-6.2476-7.069-2.1934-12.008 4.0005-4.8734 3.2134 9.0348 5.1562 3.9024 0.0449 0.23083 0.10142 0.47334 0.2168 0.77148 2.225 5.7491 8.4811 2.8185 12.449 7.7988s-3.9881 2.1156 1.0059 6.1328c4.994 4.0172 5.1292-4.9361 11.391-2.6641s1.479 15.806 7.7715 18.139 2.4996-13.238 8.9902-12.955c6.4906 0.283-1.6911 10.208 4.8223 10.268 6.5133 0.0595 0.47839-12.272 6.9805-13.467 6.5021-1.1952 6.9978 11.591 12.689 8.3125s-11.335-4.4149-7.2266-9.2637c4.1082-4.8488 15.319 2.438 18.645-2.9258 3.3258-5.3638-9.7131-5.2285-7.3457-11.256s9.3658 1.7127 10.344-4.4844c0.97799-6.1971-6.2976-2.4835-7.2324-9.123-0.93486-6.6396 11.276-2.1119 9.2832-8.0879s-12.932 4.378-15.855-1.4297c-2.9235-5.8077 8.1888-9.1533 4.6328-14.453-3.556-5.2998-4.1228 8.9932-9.1074 5.332s5.0274-12.773-0.32031-16.869c-5.3477-4.0957-8.4337 6.1455-14.773 4.5176-6.3398-1.628 7.5212-9.946 0.94726-9.7734-6.5739 0.17251-0.59717 12.506-7.1816 13.799-6.5845 1.2924-3.3883-17.45-9.4102-15.191-6.0219 2.2585-0.0124 17.907-5.6367 20.619s-6.832-16.078-10.836-10.904c-4.0039 5.1741 3.3901 6.4098 0.20313 12.098-1.7418 3.1086-5.2836 2.1648-8.6895 1.5996-4.1131-3.592-15.357-0.66943-17.609-5.5801-2.483-5.4132 9.3772-5.3845 5.0371-9.7539-4.3401-4.3694-7.6827 10.209-13.018 6.5898s6.1885-13.687 0.31055-16.336c-5.878-2.6489-3.3924 11.189-9.6738 10.484-6.2815-0.70491 3.6827-15.297-2.6211-14.291s-3.9921 11.065-10.125 11.764c-6.1329 0.69841-4.05-10.437-9.2207-7.1523-5.1707 3.2847 1.72 11.256-2.6348 15.83-2.0176 2.119-4.3417 1.0886-6.6992-0.14844 1.2902-5.0595 5.6603-11.655 2.2832-13.92-4.8842-3.2762-9.0479 7.5547-15.154 6.1055s2.6959-11.516-3.3476-12.264c-6.0436-0.74732-0.61219 12.296-6.5195 12.887-5.9074 0.59106-0.0365-11.034-5.5312-8.8652-5.4947 2.1691-2.2479 7.7115-7.8379 10.312-5.59 2.601-2.6044-2.7778-6.7793 1.9062-3.9638 4.447 1.6713 7.2945-0.34961 11.936-1.9746 0.71514-4.1771 2.8927-6.5488-0.83985-3.8133-6.0012 6.3065-13.492 1.418-18.23-4.8886-4.7387-12.413 13.592-18.49 10.727-6.0768-2.8658 11.447-16.128 4.6738-17.439s-8.9154 16.275-15.844 14.271c-6.9283-2.0032 0.0585-19.164-6.7207-18.73zm149.51 36.543c4.5654 0.65892 9.9708 1.1834 9.3887 4.7246-0.45962 2.796-2.7324 3.8228-5.1894 4.6191-1.5539-2.4996-8.4421 0.46868-8.627-4.5449-0.11087-3.0062 2.3188-3.9263 4.4277-4.7988zm-181.72 6.6621c2.0478 0.0573 3.5445 0.6651 3.4902 2.752-0.11955 4.5959-5.0247 6.0913-7.8379 8.9199-2.4615-2.1466-5.4863-4.2316-5.2344-7.8184 0.13121-1.8681 0.64304-2.7867 1.3106-3.3164 2.3232 0.1615 5.7177-0.60855 8.2715-0.53711zm178.94 10.533c0.4687 3.4184 2.7204 1.7578 4.7344 6.8906 1.861 4.7429-4.8476 1.2034-6.7676 2.2168 1.1972-3.9211-0.91833-1.3783 0.5957-6.6445 0.33387-1.1613 0.8401-1.9222 1.4375-2.4629z" fill="url(#linearGradient17983)" stroke-width="0" vector-effect="non-scaling-stroke" style="-inkscape-stroke:hairline"/>
 </g>
 <g transform="translate(-80.986 -53.597)">
  <text x="85.466835" y="71.181107" fill="#ffffff" font-family="'Campground Free Demo'" font-size="15.875px" stroke-width=".26458" style="line-height:1.25" xml:space="preserve"><tspan x="85.466835" y="71.181107" fill="#ffffff" font-family="'Campground Free Demo'" font-size="15.875px" stroke-width=".26458">Project Vibrance</tspan></text>
 </g>
</svg>
