<?xml version="1.0" encoding="UTF-8"?>
<!-- Created with Inkscape (http://www.inkscape.org/) -->
<svg width="92.721mm" height="25.53mm" version="1.1" viewBox="0 0 92.721 25.53" xmlns="http://www.w3.org/2000/svg" xmlns:xlink="http://www.w3.org/1999/xlink">
 <defs>
  <linearGradient id="linearGradient17983" x1="306.09" x2="656.53" y1="250.82" y2="250.82" gradientUnits="userSpaceOnUse">
   <stop stop-color="#f00" stop-opacity=".5" offset="0"/>
   <stop stop-color="#5000ff" stop-opacity=".50196" offset="1"/>
  </linearGradient>
 </defs>
 <g transform="translate(-80.986 -53.597)">
  <path transform="scale(.26458)" d="m429.28 202.58c-6.7792 0.43393-3.8076 17.799-10.262 19.947s-2.2219-18.321-8.0469-14.377c-5.825 3.9439 3.9942 14.534-1.2617 18.717s-12.547-13.075-16.436-6.959 9.0489 7.8274 5.502 14.102c-1.7529 3.1007-4.5424 3.7885-7.0625 4.5156-2.4111-0.23493-6.5533 1.9453-7.7949-2.4902-1.828-6.5301 14.782 0.43611 11.717-5.8574s-15.334 4.4991-19.176-1.0254c-3.842-5.5245 8.1986-9.3256 3.4219-14.393-4.7767-5.067-6.5603 7.0278-12.83 3.6289-6.2698-3.3988 7.7669-13.46 0.77149-14.939s-11.377 13.882-17.914 12.371c-6.5368-1.511 5.6129-9.7292-1.0645-9.6113-6.6774 0.11792-2.7477 10.437-9.0957 13.086s-4.312-18.877-9.709-14.709c-5.397 4.1682 6.2611 8.7142 1.9961 13.783s-12.901-5.7262-16.045 0.10156 4.1354 8.1392 1.2637 14.436-8.8709-0.22932-10.98 5.9648c-2.1096 6.1942 14.252 5.2836 15.039 11.912 0.78753 6.6285-11.232 2.5338-10.355 9.0742 0.87673 6.5404 5.0225-4.585 7.5137 1.5352 2.4911 6.1202-3.8561 3.1232-0.11328 8.8926 3.7428 5.7693 7.5336-2.1891 12.541 2.1699s-10.272 5.944-4.0547 8.6426c6.2178 2.6985 5.1465-7.4635 11.566-4.582 6.4199 2.8815 5.91 12.139 12.729 12.506 6.8185 0.36642-3.5211-7.0574 3.5274-8.2129 7.0485-1.1554 3.2746 13.011 9.5449 10.428s2.5547-9.9225 8.3184-13.031 2.8167 4.0368 7.457-0.74219c4.6404-4.7789-6.3505-4.252-3.3613-10.094 2.7425-5.3597 14.304 1.4192 17.984-2.2031 3.767-0.47049 9.1335-3.3051 10.371 1.0508 1.8902 6.6531-16.884 8.7106-13.76 14.918s13.937-8.2136 19.242-3.5898c5.3047 4.6237-7.4741 11.316-1.4219 15.373s6.4941-13.412 12.703-10.98-1.3286 16.295 5.3301 17.09c6.6586 0.79489 4.3711-11.768 11.127-11.994 6.7559-0.22641-2.2691 8.4196 4.2383 5.9688 6.5074-2.4509 1.0277-9.8293 7.8984-12.357 6.8707-2.5281 6.2185 9.6376 10.896 4.2383s-4.1238-5.7368 0.2207-11.357c4.1446-5.3619 7.8411-2.1869 11.5-6.9727 3.4344 4.1272-10.601 2.6524-7.0293 7.1856 3.6463 4.6277 4.6948-5.255 9.6055-1.1914 4.9107 4.0636-2.7565 8.1332 3.4512 9.5078 6.2077 1.3746 8.4271-1.8204 14.488-1.0312 6.0612 0.78919-4.6566 10.748 1.166 10.045 5.8226-0.70336 6.04-11.484 11.627-13.557 5.587-2.0725-1.2326 6.2496 4.1035 3.4394 5.3362-2.8101-1.6722-5.3458 3.0996-9.4629 0.65889-0.56849 1.3115-0.87907 1.959-1.0332 0.59956 0.1554 1.2845 0.58842 2.1192 1.5449 4.0818 4.6776-5.1164 7.4685 0.73046 10.281 5.8469 2.8128 7.4957-10.946 12.902-7.9316 5.4066 3.014-1.4216 15.048 4.4629 16.812 5.8845 1.7646-1.5065-12.947 4.5605-12.949 6.067-2e-3 2.3857 9.9675 8.4356 9.0508s2.6958-12.452 8.0957-15.674c5.3999-3.2217 8.4025 6.5754 13.83 3.2949 5.4276-3.2805-6.2476-7.069-2.1934-12.008 4.0005-4.8734 3.2134 9.0348 5.1562 3.9024 0.0449 0.23083 0.10142 0.47334 0.2168 0.77148 2.225 5.7491 8.4811 2.8185 12.449 7.7988s-3.9881 2.1156 1.0059 6.1328c4.994 4.0172 5.1292-4.9361 11.391-2.6641s1.479 15.806 7.7715 18.139 2.4996-13.238 8.9902-12.955c6.4906 0.283-1.6911 10.208 4.8223 10.268 6.5133 0.0595 0.47839-12.272 6.9805-13.467 6.5021-1.1952 6.9978 11.591 12.689 8.3125s-11.335-4.4149-7.2266-9.2637c4.1082-4.8488 15.319 2.438 18.645-2.9258 3.3258-5.3638-9.7131-5.2285-7.3457-11.256s9.3658 1.7127 10.344-4.4844c0.97799-6.1971-6.2976-2.4835-7.2324-9.123-0.93486-6.6396 11.276-2.1119 9.2832-8.0879s-12.932 4.378-15.855-1.4297c-2.9235-5.8077 8.1888-9.1533 4.6328-14.453-3.556-5.2998-4.1228 8.9932-9.1074 5.332s5.0274-12.773-0.32031-16.869c-5.3477-4.0957-8.4337 6.1455-14.773 4.5176-6.3398-1.628 7.5212-9.946 0.94726-9.7734-6.5739 0.17251-0.59717 12.506-7.1816 13.799-6.5845 1.2924-3.3883-17.45-9.4102-15.191-6.0219 2.2585-0.0124 17.907-5.6367 20.619s-6.832-16.078-10.836-10.904c-4.0039 5.1741 3.3901 6.4098 0.20313 12.098-1.7418 3.1086-5.2836 2.1648-8.6895 1.5996-4.1131-3.592-15.357-0.66943-17.609-5.5801-2.483-5.4132 9.3772-5.3845 5.0371-9.7539-4.3401-4.3694-7.6827 10.209-13.018 6.5898s6.1885-13.687 0.31055-16.336c-5.878-2.6489-3.3924 11.189-9.6738 10.484-6.2815-0.70491 3.6827-15.297-2.6211-14.291s-3.9921 11.065-10.125 11.764c-6.1329 0.69841-4.05-10.437-9.2207-7.1523-5.1707 3.2847 1.72 11.256-2.6348 15.83-2.0176 2.119-4.3417 1.0886-6.6992-0.14844 1.2902-5.0595 5.6603-11.655 2.2832-13.92-4.8842-3.2762-9.0479 7.5547-15.154 6.1055s2.6959-11.516-3.3476-12.264c-6.0436-0.74732-0.61219 12.296-6.5195 12.887-5.9074 0.59106-0.0365-11.034-5.5312-8.8652-5.4947 2.1691-2.2479 7.7115-7.8379 10.312-5.59 2.601-2.6044-2.7778-6.7793 1.9062-3.9638 4.447 1.6713 7.2945-0.34961 11.936-1.9746 0.71514-4.1771 2.8927-6.5488-0.83985-3.8133-6.0012 6.3065-13.492 1.418-18.23-4.8886-4.7387-12.413 13.592-18.49 10.727-6.0768-2.8658 11.447-16.128 4.6738-17.439s-8.9154 16.275-15.844 14.271c-6.9283-2.0032 0.0585-19.164-6.7207-18.73zm149.51 36.543c4.5654 0.65892 9.9708 1.1834 9.3887 4.7246-0.45962 2.796-2.7324 3.8228-5.1894 4.6191-1.5539-2.4996-8.4421 0.46868-8.627-4.5449-0.11087-3.0062 2.3188-3.9263 4.4277-4.7988zm-181.72 6.6621c2.0478 0.0573 3.5445 0.6651 3.4902 2.752-0.11955 4.5959-5.0247 6.0913-7.8379 8.9199-2.4615-2.1466-5.4863-4.2316-5.2344-7.8184 0.13121-1.8681 0.64304-2.7867 1.3106-3.3164 2.3232 0.1615 5.7177-0.60855 8.2715-0.53711zm178.94 10.533c0.4687 3.4184 2.7204 1.7578 4.7344 6.8906 1.861 4.7429-4.8476 1.2034-6.7676 2.2168 1.1972-3.9211-0.91833-1.3783 0.5957-6.6445 0.33387-1.1613 0.8401-1.9222 1.4375-2.4629z" fill="url(#linearGradient17983)" stroke-width="0" vector-effect="non-scaling-stroke" style="-inkscape-stroke:hairline"/>
 </g>
 <g transform="translate(-80.986 -53.597)">
  <g fill="#fff" stroke-width=".26458" aria-label="Project Vibrance">
   <path d="m101.14 60.418c-0.8255-0.01588-1.5716 0.1905-2.2225 0.55562-0.04762 0.01588-0.11112 0.01588-0.14288-0.03175-0.28575-0.1905-0.61912-0.36512-0.9525-0.508-2.0796-0.85725-4.5402 0.14288-6.0642 1.5558-0.47625 0.46038 0.23812 1.1748 0.71438 0.73025 1.1748-1.0795 2.4765-1.5716 4.064-1.5081 0.36512 0.01588 0.73025 0.09525 1.0636 0.23812 0.17462 0.0635 0.20638 0.28575 0.0635 0.41275-1.143 1.0636-2.0638 2.5241-2.9528 3.8418-0.17462 0.254-0.53975 0.34925-0.79375 0.17462-0.39688-0.23812-0.68262-0.60325-0.8255-1.1271-0.17462-0.635-1.1589-0.36512-0.98425 0.26988 0.26988 1.0001 0.92075 1.6192 1.7304 1.9368l-0.07937 0.07937c-1.27 1.6192-3.2861 3.4449-5.5086 2.9051-1.4288-0.33338-2.1114-2.2542-1.4764-3.4766 0.46038-0.90488 1.6986-1.143 2.6194-1.0795 0.66675 0.03175 0.66675-0.98425 0-1.0319-1.7462-0.11112-3.5242 0.80962-3.8576 2.6194-0.39688 2.1431 1.3652 3.9211 3.3655 4.1116 2.3654 0.23812 4.5561-2.0002 5.8579-3.6671 0.04762-0.0635 0.11112-0.127 0.15875-0.22225 1.9844 0.17462 4.3656-0.9525 5.0482-2.6829 0.41274-1.0478 0.20638-2.0002-0.36512-2.7622 0.46037-0.20638 0.98425-0.3175 1.5399-0.3175 0.65088 0.01587 0.65088-1.016 0-1.016zm-2.2542 3.9688c-0.508 0.92075-1.9368 1.6986-3.2861 1.8098 0.92075-1.3652 1.8732-2.9686 3.1274-3.9052 0.4445 0.5715 0.58738 1.3018 0.15875 2.0955z"/>
   <path d="m104.56 68.117c-0.4445 0.60325-0.92075 1.1112-1.5558 1.5081-0.42862 0.28575-1.3176 0.85725-0.80962-0.254 0.46037-0.98425 1.6034-1.6986 1.4288-2.9051-0.0476-0.28575-0.33338-0.55562-0.55563-0.6985l-0.0953-0.04762c0.15875-0.4445 0.17463-0.90488-0.17462-1.2224-1.1271-1.016-2.3654 0.635-1.2382 1.5558-0.85725 0.93662-1.7304 1.5875-2.6035 2.5876-0.4445 0.508 0.42862 1.2065 0.77788 0.635 0.6985-1.0795 1.8415-1.7621 2.7146-2.6829 0.0476 0.03175 0.0953 0.0635 0.127 0.09525 0.30162 0.254-0.92075 1.651-1.1112 1.905-0.47625 0.635-0.71438 1.6828-0.0952 2.3019 1.1748 1.1589 3.5401-1.524 4.0799-2.2542 0.39688-0.53975-0.49212-1.0478-0.889-0.52388z"/>
   <path d="m110.06 68.403c-0.41275 0.49212-0.84137 0.96838-1.3811 1.3176-0.0159 0-0.0318 0.01587-0.0476 0.01587-0.11112 0.0635-0.23812-0.07937-0.15875-0.17462 0.11113-0.14288 0.20638-0.28575 0.30163-0.42862 0.74612-1.143 0.68262-2.4765-0.55563-3.2226-1.5081-0.889-2.8099 0.84138-3.4608 1.9685-0.34925 0.61912-0.5715 1.5716-0.36512 2.2384 0.17462 0.55562 0.71437 1.0478 1.3018 1.0795 0.5715 0.04762 1.0954-0.14288 1.5716-0.47625 0.15875-0.09525 0.34925-0.11112 0.508-0.03175 0.15875 0.07937 0.33338 0.14288 0.52388 0.15875 0.98425 0.09525 1.9209-1.0954 2.4606-1.7304 0.41275-0.49212-0.28575-1.2065-0.6985-0.71438zm-4.4132 1.7621c-0.68262-0.30162-0.28575-1.2859-0.0635-1.7304 0.381-0.65088 0.90488-1.6351 1.7462-1.7304 0.46038-0.04762 0.92075 0.381 0.9525 0.8255 0.0318 0.3175-0.11112 0.65088-0.381 1.1112-0.0794 0.127-0.26987 0.14288-0.36512 0.01587-0.11113-0.14288-0.254-0.26988-0.42863-0.22225-0.26987 0.0635-0.52387 0.26988-0.42862 0.60325l0.11112 0.34925c0.0952 0.28575 0 0.30162-0.1905 0.55562-0.26987 0.17462-0.65087 0.36512-0.9525 0.22225z"/>
   <path d="m114.36 68.673c-0.85725 1.1112-1.7145 1.7145-2.9369 2.3495-0.0476 0.03175-0.11112 0.04762-0.15875 0.07937 1.0001-1.651 1.9368-3.3496 3.0321-4.953 0.23812-0.34925-0.0953-0.6985-0.4445-0.6985-0.127-0.01587-0.26988 0.01587-0.39688 0.127-1.397 1.2382-2.9845 2.1749-4.2228 3.5878-0.41275 0.46038 0.26988 1.143 0.68263 0.66675 0.61912-0.6985 1.3335-1.2859 2.0479-1.8415-0.762 1.2541-1.5081 2.54-2.2542 3.81-0.8255 0.33338-1.651 0.66675-2.413 1.0954-0.381 0.20638-1.8098 0.93662-1.8098 2.2225 0 0.77788 0.41275 1.524 1.4129 1.524 0.42862 0 0.8255-0.28575 1.3018-0.6985 0.46037-0.39688 0.762-1.0954 1.0795-1.5875 0.36512-0.5715 0.71437-1.1589 1.0795-1.7462 1.778-0.79375 3.4131-1.6351 4.6831-3.2702 0.381-0.47625-0.30162-1.1589-0.68262-0.66675zm-6.7786 6.5246c-1.143 1.5875-1.4446-0.33338-0.58737-1.0001 0.52387-0.39688 1.1906-0.65088 1.8098-0.90488-0.127 0.1905-0.23813 0.39688-0.36513 0.58738-0.26987 0.4445-0.55562 0.889-0.85725 1.3176z"/>
   <path d="m118.61 68.578c-0.66675 0.9525-2.3495 1.9685-3.5242 1.4605-0.33337-0.14288-0.49212-0.26988-0.53975-0.47625-0.0476-0.15875 0.11113-0.30162 0.26988-0.23812 1.143 0.4445 2.7622-0.254 3.4131-1.2224 0.39688-0.58738 0.4445-1.4764-0.0952-2.0002-0.68262-0.6985-1.8256-0.3175-2.5241 0.11112-1.4922 0.889-3.1115 3.429-1.1271 4.6514 1.651 1.0001 3.4766-0.39688 4.6038-1.4129 0.66675-0.60325-0.11112-1.397-0.47625-0.87312zm-2.2701-1.651c0.65087-0.381 1.6351-0.07937 0.98425 0.6985-0.254 0.3175-0.60325 0.53975-0.98425 0.6985-0.33338 0.127-0.77788 0.23812-1.143 0.07937-0.127-0.0635-0.17463-0.23812-0.0794-0.34925 0.33338-0.4445 0.74613-0.8255 1.2224-1.1271z"/>
   <path d="m123.39 67.466c0.17463-1.4129-1.0319-1.8891-2.2225-1.5558-1.2224 0.34925-2.5876 1.8891-2.6988 3.1591-0.127 1.3811 1.0319 2.1272 2.3019 2.1114 1.27-0.01587 2.6035-0.85725 3.302-1.8256 0.36512-0.508-0.381-0.96838-0.66675-0.5715-0.68263 0.9525-2.5241 2.0638-3.7148 1.0795-0.71438-0.58738 0.23812-1.7621 0.65087-2.2225 0.42863-0.47625 2.2225-1.5716 2.0479-0.17462-0.0794 0.635 0.93662 0.635 1.0001 0z"/>
   <path d="m127.82 65.244h-0.4445c-0.1905 0-0.28575-0.20638-0.1905-0.34925l1.2541-1.8891c0.381-0.52388-0.49213-1.016-0.85725-0.49212l-1.6669 2.3971c-0.23812 0.34925-0.0635 0.3175-1.0001 0.3175-0.65088-0.01587-1.0001 0.98425-0.34925 1.0001 0.41275 0 0.33337 0.11112 0.14287 0.36512-0.73025 0.98425-1.3335 1.651-1.2859 2.8892 0.0159 0.71438 0.71437 1.6986 1.524 1.6986 1.1748 0 1.8891-1.2065 2.5082-2.0638 0.381-0.52388-0.47625-1.0319-0.85725-0.508l-0.96838 1.1748c-0.254 0.26988-0.508 0.34925-0.71437 0.28575-0.33338-0.07937-0.55563-0.49212-0.46038-1.016 0.0476-0.34925 0.30163-0.84138 0.52388-1.2065 0.254-0.42862 0.49212-0.84138 0.85725-1.143 0.33337-0.28575 0.61912-0.46038 1.0478-0.46038h0.5715c0.635 0.01587 0.90487-1.0001 0.36512-1.0001z"/>
   <path d="m137.89 59.878c-2.1749 1.7621-3.9529 4.1751-5.4928 6.6834-0.14288 0.23812-0.508 0.09525-0.46038-0.1905 0.34925-1.9368 0.71438-3.3496 1.0795-5.2864 0.11113-0.635-0.87312-0.92075-0.98425-0.26988-0.635 3.429-1.27 6.3341-1.905 9.779-0.0952 0.52388 0.65088 0.92075 0.93663 0.381 1.9368-3.6354 4.3021-7.747 7.5406-10.382 0.508-0.41275-0.22225-1.1112-0.71437-0.71438z"/>
   <path d="m136.76 65.799c0.65088 0 0.65088-1.0001 0-1.0001-0.635 0-0.635 1.0001 0 1.0001zm0.1905 2.8575c-0.22225 0.20638-1.27 1.3018-1.9209 1.5081-0.8255 0.254-0.65088-0.41275-0.39688-0.85725 0.52388-0.92075 1.1271-1.5716 1.9844-2.4765 0.4445-0.46038-0.42863-0.98425-0.85725-0.508-1.0478 1.143-2.5876 2.286-2.3654 3.8259 0.11113 0.79375 1.0001 1.1748 1.7304 1.016 0.96837-0.20638 1.8574-1.1748 2.6988-2.0002 0.46037-0.46038-0.30163-1.0001-0.87313-0.508z"/>
   <path d="m142.68 68.181c-0.15875 0.127-0.36512 0.47625-0.53975 0.60325-0.1905 0.15875-0.39687-0.20638-0.39687-0.52388 0-0.79375-0.60325-1.4605-1.397-1.6192-0.0159 0-0.0476 0-0.0635-0.01587 1.6669-1.0795 3.7306-2.6988 2.3178-4.1116-1.016-1.016-2.3812 1.0001-2.8258 1.6828-0.65088 0.9525-1.1906 2.0002-1.8098 2.9845-0.60325 0.92075-1.3176 2.3654-2.2066 3.0162-0.49212 0.36512-0.0159 1.2065 0.49213 0.8255 0.8255-0.61912 1.4605-1.7621 2.0479-2.6035l0.0635-0.11112c0.0476-0.01588 0.0953-0.04762 0.14288-0.07937 0.39687-0.33338 1.016-0.68262 1.524-0.61912 0.36512 0.03175 0.65087 0.254 0.77787 0.80962 0.3175 1.4129-1.3176 2.0479-2.4448 1.6986-0.58737-0.1905-0.84137 0.71438-0.254 0.93662 0.60325 0.22225 1.4129 0.0635 2.0161-0.11112 1.1271-0.34925 2.2542-0.8255 3.1909-2.0955 0.36513-0.508-0.14287-1.0478-0.635-0.66675zm-1.8574-3.8259c0.30162-0.46038 1.6828-1.6986 1.0795-0.28575-0.14288 0.3175-0.71438 0.635-0.96838 0.8255-0.26987 0.20638-0.55562 0.41275-0.84137 0.61912 0.23812-0.39688 0.47625-0.77788 0.73025-1.1589z"/>
   <path d="m147.82 68.117c-0.4445 0.60325-0.92075 1.1112-1.5558 1.5081-0.42863 0.28575-1.3176 0.85725-0.80963-0.254 0.46038-0.98425 1.6034-1.6986 1.4288-2.9051-0.0476-0.28575-0.33337-0.55562-0.55562-0.6985l-0.0952-0.04762c0.15875-0.4445 0.17462-0.90488-0.17463-1.2224-1.1271-1.016-2.3654 0.635-1.2382 1.5558-0.85725 0.93662-1.7304 1.5875-2.6035 2.5876-0.4445 0.508 0.42863 1.2065 0.77788 0.635 0.6985-1.0795 1.8415-1.7621 2.7146-2.6829 0.0476 0.03175 0.0953 0.0635 0.127 0.09525 0.30163 0.254-0.92075 1.651-1.1112 1.905-0.47625 0.635-0.71437 1.6828-0.0953 2.3019 1.1748 1.1589 3.5401-1.524 4.0799-2.2542 0.39687-0.53975-0.49213-1.0478-0.889-0.52388z"/>
   <path d="m154.11 68.593c-0.49212 0.49212-1.3652 1.4129-2.0479 1.6192-0.5715 0.15875-0.49213-0.3175-0.26988-0.79375 0.254-0.52388 0.508-0.9525 1.0954-1.8098 0.58737-0.84138 0.58737-1.2541-0.14288-1.7462h-0.0159c-0.508-0.26988-1.5399 0.07937-2.1749 0.36512-0.8255 0.381-1.5875 0.80962-2.2542 1.4446-0.85725 0.77788-1.8098 2.9369-0.1905 3.4766 0.93663 0.30162 1.8256-0.1905 2.5876-0.87312 0.11112 0.39688 0.42862 0.68262 0.84137 0.85725 1.0478 0.42862 2.6194-1.2065 3.2544-1.8574 0.4445-0.4445-0.254-1.1271-0.68263-0.68262zm-5.2229 1.6192c-0.49213 0.127-0.74613-0.0635-0.66675-0.55562 0.0952-0.73025 0.73025-1.3335 1.2859-1.7462 0.60325-0.46038 1.8732-1.2541 2.7146-1.1748-0.14288 0.28575-0.84138 1.2859-0.87313 1.3335-0.60325 0.85725-1.4129 1.8574-2.4606 2.1431z"/>
   <path d="m161.11 68.419c-0.22225 0.34925-0.60325 0.85725-0.87313 1.1748-0.508 0.635-1.0954 0.73025-0.635-0.30162 0.22225-0.508 0.6985-1.143 0.889-1.651 0.28575-0.71438 0.34925-1.8098-0.71437-1.8098-0.52388 0-1.016 0.33338-1.4446 0.71438-0.15875-0.55562-0.77787-0.85725-1.3176-0.74612-0.58738 0.11112-1.1271 0.74612-1.5081 1.1589-0.53975 0.55562-1.0319 1.1589-1.5081 1.778-0.381 0.47625 0.28575 1.143 0.66675 0.66675 0.55562-0.68262 1.1271-1.3811 1.7462-2.0002 0.23812-0.254 0.52387-0.5715 0.85725-0.68262 0.36512-0.127 0.46037 0.20638-0.127 1.1271-0.5715 0.87312-1.27 1.8415-1.8732 2.54-0.39688 0.46038 0.26987 1.143 0.66675 0.66675 0.74612-0.84138 1.524-2.1431 2.2542-2.9845 0.381-0.41275 0.762-0.80962 1.2224-1.1112 0.71438-0.508-0.17462 1.0954-0.3175 1.3494-0.46037 0.84138-1.2859 2.4289-0.0476 2.8734 1.1748 0.42862 2.3971-1.524 2.8892-2.2701 0.33337-0.52388-0.49213-1.0001-0.8255-0.49212z"/>
   <path d="m166 67.466c0.17463-1.4129-1.0319-1.8891-2.2225-1.5558-1.2224 0.34925-2.5876 1.8891-2.6988 3.1591-0.127 1.3811 1.0319 2.1272 2.3019 2.1114 1.27-0.01587 2.6035-0.85725 3.302-1.8256 0.36512-0.508-0.381-0.96838-0.66675-0.5715-0.68263 0.9525-2.5241 2.0638-3.7148 1.0795-0.71438-0.58738 0.23812-1.7621 0.65087-2.2225 0.42863-0.47625 2.2225-1.5716 2.0479-0.17462-0.0794 0.635 0.93662 0.635 1.0001 0z"/>
   <path d="m171.08 68.578c-0.66675 0.9525-2.3495 1.9685-3.5242 1.4605-0.33337-0.14288-0.49212-0.26988-0.53975-0.47625-0.0476-0.15875 0.11113-0.30162 0.26988-0.23812 1.143 0.4445 2.7622-0.254 3.4131-1.2224 0.39688-0.58738 0.4445-1.4764-0.0953-2.0002-0.68262-0.6985-1.8256-0.3175-2.5241 0.11112-1.4922 0.889-3.1115 3.429-1.1271 4.6514 1.651 1.0001 3.4766-0.39688 4.6038-1.4129 0.66675-0.60325-0.11112-1.397-0.47625-0.87312zm-2.2701-1.651c0.65087-0.381 1.6351-0.07937 0.98425 0.6985-0.254 0.3175-0.60325 0.53975-0.98425 0.6985-0.33338 0.127-0.77788 0.23812-1.143 0.07937-0.127-0.0635-0.17463-0.23812-0.0794-0.34925 0.33338-0.4445 0.74613-0.8255 1.2224-1.1271z"/>
  </g>
 </g>
</svg>
